<svg xmlns="http://www.w3.org/2000/svg" xmlns:xlink="http://www.w3.org/1999/xlink" width="260" height="302" viewBox="0 0 260 302">
  <defs>
    <filter id="Mask" x="-42" y="-34" width="344" height="386" filterUnits="userSpaceOnUse">
      <feOffset dy="8" input="SourceAlpha"/>
      <feGaussianBlur stdDeviation="14" result="blur"/>
      <feFlood flood-color="#57a091" flood-opacity="0.141"/>
      <feComposite operator="in" in2="blur"/>
      <feComposite in="SourceGraphic"/>
    </filter>
    <clipPath id="clip-path">
      <g transform="matrix(1, 0, 0, 1, 0, 0)" filter="url(#Mask)">
        <rect id="Mask-2" data-name="Mask" width="260" height="302" rx="30" fill="#fff"/>
      </g>
    </clipPath>
  </defs>
  <g id="Birthday_Hover" data-name="Birthday Hover" clip-path="url(#clip-path)">
    <text id="Rally_your_friends_a" data-name="Rally your friends a" transform="translate(36 217)" fill="#121212" font-size="14" font-family="SegoeUI, Segoe UI"><tspan x="15.822" y="15">Rally your friends and say </tspan><tspan x="47.793" y="34">happy birthday</tspan></text>
    <rect id="Rectangle" width="302" height="13" transform="translate(-13 289)" fill="#6dcab6"/>
    <g id="Birthday_Icon" data-name="Birthday Icon" transform="translate(73 37)">
      <path id="Path" d="M.227,7.358V0" transform="translate(55.188 18.805)" fill="none" stroke="#509a8f" stroke-miterlimit="10" stroke-width="2.725"/>
      <path id="Path-2" data-name="Path" d="M4.724,12.409a1.318,1.318,0,0,1-1.317,1.317H1.317A1.318,1.318,0,0,1,0,12.409V.781c0-.727.5-1,1.09-.59l2.5,1.635a2.783,2.783,0,0,1,1.09,2v8.585Z" transform="translate(53.053 24.746)" fill="none" stroke="#23364e" stroke-miterlimit="10" stroke-width="2.725"/>
      <path id="Path-3" data-name="Path" d="M.818.182A2.17,2.17,0,0,1,0,0V1.726a5.005,5.005,0,0,0,.818.091,5.005,5.005,0,0,0,.818-.091V0A2.17,2.17,0,0,1,.818.182Z" transform="translate(54.597 19.986)" fill="#509a8f"/>
      <path id="Path-4" data-name="Path" d="M2.771,0c0,2.725,2.771,3.043,2.771,5.814A2.753,2.753,0,0,1,2.771,8.585,2.753,2.753,0,0,1,0,5.814C0,3.043,2.771,2.68,2.771,0Z" transform="translate(52.644 10.947)" fill="#e8595a" stroke="#23364e" stroke-linecap="round" stroke-linejoin="round" stroke-miterlimit="10" stroke-width="2.725"/>
      <g id="Group" transform="translate(13.627 58.14)">
        <path id="Path-5" data-name="Path" d="M83.122,26.3A1.318,1.318,0,0,1,81.8,27.617H1.317A1.318,1.318,0,0,1,0,26.3V1.317A1.318,1.318,0,0,1,1.317,0H81.8a1.318,1.318,0,0,1,1.317,1.317Z" transform="translate(0.227 0.182)" fill="#6dc7b6"/>
        <path id="Path-6" data-name="Path" d="M83.122,26.3A1.318,1.318,0,0,1,81.8,27.617H1.317A1.318,1.318,0,0,1,0,26.3V1.317A1.318,1.318,0,0,1,1.317,0H81.8a1.318,1.318,0,0,1,1.317,1.317Z" transform="translate(0.227 0.182)" fill="none" stroke="#fff" stroke-miterlimit="10" stroke-width="2.725"/>
      </g>
      <g id="Group-2" data-name="Group" transform="translate(26.799 38.154)">
        <path id="Path-7" data-name="Path" d="M56.369,18.578a1.318,1.318,0,0,1-1.317,1.317H1.317A1.318,1.318,0,0,1,0,18.578V1.317A1.318,1.318,0,0,1,1.317,0H55.051a1.318,1.318,0,0,1,1.317,1.317Z" transform="translate(0.409 0.273)" fill="#6dc7b6"/>
        <path id="Path-8" data-name="Path" d="M56.369,18.578a1.318,1.318,0,0,1-1.317,1.317H1.317A1.318,1.318,0,0,1,0,18.578V1.317A1.318,1.318,0,0,1,1.317,0H55.051a1.318,1.318,0,0,1,1.317,1.317Z" transform="translate(0.409 0.273)" fill="none" stroke="#fff" stroke-miterlimit="10" stroke-width="2.725"/>
      </g>
      <path id="Path-9" data-name="Path" d="M0,8.4C4.678,8.4,4.678,4,9.4,4,14.081,4,14.081,8.4,18.8,8.4,23.483,8.4,23.483,4,28.207,4c4.678,0,4.678,4.406,9.4,4.406C42.288,8.4,42.288,4,47.012,4,51.69,4,51.69,8.4,56.414,8.4V1.317A1.318,1.318,0,0,0,55.1,0H1.5A1.318,1.318,0,0,0,.182,1.317V8.4" transform="translate(27.253 42.742)" fill="#509a8f"/>
      <g id="Group-3" data-name="Group" transform="translate(27.253 38.154)">
        <path id="Path-10" data-name="Path" d="M0,8.4C4.678,8.4,4.678,4,9.4,4S14.081,8.4,18.8,8.4C23.483,8.4,23.483,4,28.207,4c4.678,0,4.678,4.406,9.4,4.406C42.288,8.4,42.288,4,47.012,4,51.69,4,51.69,8.4,56.414,8.4V1.317A1.318,1.318,0,0,0,55.1,0H1.5A1.318,1.318,0,0,0,.182,1.317V8.4" transform="translate(0 0.273)" fill="#d3eee9"/>
        <path id="Path-11" data-name="Path" d="M0,8.4C4.678,8.4,4.678,4,9.4,4S14.081,8.4,18.8,8.4C23.483,8.4,23.483,4,28.207,4c4.678,0,4.678,4.406,9.4,4.406C42.288,8.4,42.288,4,47.012,4,51.69,4,51.69,8.4,56.414,8.4V1.317A1.318,1.318,0,0,0,55.1,0H1.5A1.318,1.318,0,0,0,.182,1.317V8.4" transform="translate(0 0.273)" fill="none" stroke="#23364e" stroke-miterlimit="10" stroke-width="2.725"/>
      </g>
      <path id="Path-12" data-name="Path" d="M0,10.311c6.9,0,6.9-6.5,13.854-6.5,6.9,0,6.9,6.5,13.854,6.5,6.9,0,6.9-6.5,13.854-6.5,6.9,0,6.9,6.5,13.854,6.5,6.9,0,6.9-6.5,13.854-6.5,6.9,0,6.9,6.5,13.854,6.5V1.317A1.318,1.318,0,0,0,81.8,0H1.317A1.318,1.318,0,0,0,0,1.317Z" transform="translate(13.854 63)" fill="#509a8f"/>
      <g id="Group-4" data-name="Group" transform="translate(13.627 58.14)">
        <path id="Path-13" data-name="Path" d="M0,10.311c6.9,0,6.9-6.5,13.854-6.5s6.9,6.5,13.854,6.5c6.9,0,6.9-6.5,13.854-6.5,6.9,0,6.9,6.5,13.854,6.5,6.9,0,6.9-6.5,13.854-6.5,6.9,0,6.9,6.5,13.854,6.5V1.317A1.318,1.318,0,0,0,81.8,0H1.317A1.318,1.318,0,0,0,0,1.317Z" transform="translate(0.227 0.182)" fill="#d3eee9"/>
        <path id="Path-14" data-name="Path" d="M0,10.311c6.9,0,6.9-6.5,13.854-6.5s6.9,6.5,13.854,6.5c6.9,0,6.9-6.5,13.854-6.5,6.9,0,6.9,6.5,13.854,6.5,6.9,0,6.9-6.5,13.854-6.5,6.9,0,6.9,6.5,13.854,6.5V1.317A1.318,1.318,0,0,0,81.8,0H1.317A1.318,1.318,0,0,0,0,1.317Z" transform="translate(0.227 0.182)" fill="none" stroke="#23364e" stroke-miterlimit="10" stroke-width="2.725"/>
      </g>
      <g id="Group-5" data-name="Group" transform="translate(0 85.847)">
        <path id="Path-15" data-name="Path" d="M112.1,3.679A1.318,1.318,0,0,1,110.784,5H1.317A1.318,1.318,0,0,1,0,3.679V1.317A1.318,1.318,0,0,1,1.317,0H110.784A1.318,1.318,0,0,1,112.1,1.317Z" transform="translate(0.045 0.045)" fill="#d3eee9"/>
        <path id="Path-16" data-name="Path" d="M112.1,3.679A1.318,1.318,0,0,1,110.784,5H1.317A1.318,1.318,0,0,1,0,3.679V1.317A1.318,1.318,0,0,1,1.317,0H110.784A1.318,1.318,0,0,1,112.1,1.317Z" transform="translate(0.045 0.045)" fill="none" stroke="#23364e" stroke-miterlimit="10" stroke-width="2.725"/>
      </g>
      <path id="Path-17" data-name="Path" d="M83.077,27.026a.525.525,0,0,1-.545.545H.545A.525.525,0,0,1,0,27.026V.545A.525.525,0,0,1,.545,0H82.532a.525.525,0,0,1,.545.545Z" transform="translate(13.899 58.322)" fill="none" stroke="#23364e" stroke-miterlimit="10" stroke-width="2.725"/>
      <path id="Path-18" data-name="Path" d="M56.323,19.3a.525.525,0,0,1-.545.545H.545A.525.525,0,0,1,0,19.3V.545A.525.525,0,0,1,.545,0H55.778a.525.525,0,0,1,.545.545Z" transform="translate(27.253 38.472)" fill="none" stroke="#23364e" stroke-miterlimit="10" stroke-width="2.725"/>
      <path id="Path-19" data-name="Path" d="M.227,4.86V0" transform="translate(55.188 0.273)" fill="none" stroke="#23364e" stroke-linecap="round" stroke-miterlimit="10" stroke-width="2.725"/>
      <path id="Path-20" data-name="Path" d="M2.453,4.224,0,0" transform="translate(48.329 2.18)" fill="none" stroke="#23364e" stroke-linecap="round" stroke-miterlimit="10" stroke-width="2.725"/>
      <path id="Path-21" data-name="Path" d="M4.224,2.407,0,0" transform="translate(43.151 7.358)" fill="none" stroke="#23364e" stroke-linecap="round" stroke-miterlimit="10" stroke-width="2.725"/>
      <path id="Path-22" data-name="Path" d="M4.906.227H0" transform="translate(41.243 14.172)" fill="none" stroke="#23364e" stroke-linecap="round" stroke-miterlimit="10" stroke-width="2.725"/>
      <path id="Path-23" data-name="Path" d="M4.224,0,0,2.453" transform="translate(43.151 19.032)" fill="none" stroke="#23364e" stroke-linecap="round" stroke-miterlimit="10" stroke-width="2.725"/>
      <path id="Path-24" data-name="Path" d="M0,0,4.224,2.453" transform="translate(63.454 19.032)" fill="none" stroke="#23364e" stroke-linecap="round" stroke-miterlimit="10" stroke-width="2.725"/>
      <path id="Path-25" data-name="Path" d="M0,.227H4.86" transform="translate(64.681 14.172)" fill="none" stroke="#23364e" stroke-linecap="round" stroke-miterlimit="10" stroke-width="2.725"/>
      <path id="Path-26" data-name="Path" d="M0,2.407,4.224,0" transform="translate(63.454 7.358)" fill="none" stroke="#23364e" stroke-linecap="round" stroke-miterlimit="10" stroke-width="2.725"/>
      <path id="Path-27" data-name="Path" d="M0,4.224,2.453,0" transform="translate(60.048 2.18)" fill="none" stroke="#23364e" stroke-linecap="round" stroke-miterlimit="10" stroke-width="2.725"/>
    </g>
  </g>
</svg>
