<svg xmlns="http://www.w3.org/2000/svg" xmlns:xlink="http://www.w3.org/1999/xlink" width="110" height="85" viewBox="0 0 110 85">
  <defs>
    <linearGradient id="linear-gradient" x1="0.803" y1="0.819" x2="0.131" y2="0.174" gradientUnits="objectBoundingBox">
      <stop offset="0" stop-color="#ca2e2d"/>
      <stop offset="1" stop-color="#9b1919"/>
    </linearGradient>
    <linearGradient id="linear-gradient-2" x1="1" y1="1.303" x2="-0.219" y2="0.045" gradientUnits="objectBoundingBox">
      <stop offset="0" stop-color="#a20d0c"/>
      <stop offset="1" stop-color="#800808"/>
    </linearGradient>
    <linearGradient id="linear-gradient-3" x1="0.851" y1="-0.046" x2="0.178" y2="1" gradientUnits="objectBoundingBox">
      <stop offset="0" stop-color="#ff8180"/>
      <stop offset="1" stop-color="#fe4a49"/>
    </linearGradient>
  </defs>
  <g id="Heart_Plane_Logo" data-name="Heart Plane Logo" transform="translate(110)">
    <path id="Path" d="M-110,0s7.325.994,21.9,4.506c.044.009.072.019.115.028a.1.1,0,0,0,.025.006c1.782.406,3.652.847,5.583,1.306.271.062.536.125.81.191,3.982.956,8.226,2.012,12.659,3.178.433.112.869.231,1.309.347,1.732.459,3.48.934,5.259,1.425.6.166,1.187.331,1.788.5,2.091.587,4.191,1.187,6.316,1.812.143.044.284.081.424.122q3.351.994,6.724,2.056c.626.194,1.246.4,1.873.6q2.538.806,5.057,1.65c.67.225,1.33.444,1.994.672,2.243.766,4.477,1.544,6.68,2.35C4.159,33.834,6.032,51.083-8.553,55.457c-14.551,4.343-22.929.656-22.929.656l.9,27.247v.062c0,.109-.072.181-.087.281-.012.031-.019.059-.031.094a1.593,1.593,0,0,1-.629.866,1.491,1.491,0,0,1-.421.256,1.515,1.515,0,0,1-.162.037,1.375,1.375,0,0,1-.576.022,1.5,1.5,0,0,1-.178-.031,1.5,1.5,0,0,1-.692-.4L-47.31,70.237c-.28.469-.561.937-.876,1.437-2.77,4.25-8.191,8.687-18.539,10.811C-89.313,87.079-99,73.112-104.2,46.427c-.4-2.059-.766-4.068-1.109-6.043-.031-.191-.069-.387-.1-.578-.321-1.89-.617-3.728-.891-5.524-.034-.228-.069-.453-.1-.678q-.4-2.69-.735-5.228c-.019-.15-.041-.3-.059-.45q-.341-2.634-.617-5.075s0,0,0-.006v0C-110.123,2.553-110,0-110,0" fill="url(#linear-gradient)"/>
    <path id="Fill_4" data-name="Fill 4" d="M-15,12.645-2.03,26.533a1.337,1.337,0,0,0,2.03,0c-.319.243-.753.091-1.39-1.152C-2.722,22.743-12.944,2.487-14.218,0A16.1,16.1,0,0,1-13.06,3.821s.029.3.029.849a.3.3,0,0,1,0,.212A18.17,18.17,0,0,1-15,12.645" transform="translate(-33 58)" fill="url(#linear-gradient-2)"/>
    <path id="Fill_8" data-name="Fill 8" d="M-110,0s7.328.989,21.9,4.487c.044.009.075.019.115.028,15.46,3.519,36.958,9.014,56.5,16.14C4.16,33.692,6.03,50.868-8.552,55.224c-14.55,4.325-22.932.653-22.932.653L-82.176,21.4l-19.5-14.624,7.665,7.374c.187.187.374.342.561.5,24.832,22.559,40.971,31.676,46.362,41.2a.031.031,0,0,1,.031.031c.187.28.312.56.467.84.031.093.093.156.125.249a15.962,15.962,0,0,1,1.246,3.921s.031.311.031.871a.263.263,0,0,1,0,.218,17.944,17.944,0,0,1-2.119,7.966c-.28.467-.561.933-.872,1.431-2.773,4.232-8.194,8.65-18.538,10.766C-89.311,86.714-99,72.8-104.2,46.232c-1.707-8.731-2.851-16.7-3.62-23.483v0C-110.123,2.542-110,0-110,0" fill="url(#linear-gradient-3)"/>
  </g>
</svg>
