<svg xmlns="http://www.w3.org/2000/svg" xmlns:xlink="http://www.w3.org/1999/xlink" width="2793.713" height="4014.608" viewBox="0 0 2793.713 4014.608">
  <defs>
    <linearGradient id="linear-gradient" x1="0.5" x2="0.5" y2="0.983" gradientUnits="objectBoundingBox">
      <stop offset="0" stop-color="#f5feff"/>
      <stop offset="1" stop-color="#ecfeff"/>
    </linearGradient>
    <clipPath id="clip-path">
      <path id="Oval" d="M1388.325,4014.608c754.421,0,1366-781.711,1366-1746S3003.378,12.343,2248.957,12.343c-158.655,0-1712.237-39.869-1853.9,23.7C-136.891,274.765,22.325,1507.109,22.325,2268.608,22.325,3232.9,633.9,4014.608,1388.325,4014.608Z" fill="url(#linear-gradient)"/>
    </clipPath>
    <clipPath id="clip-path-2">
      <path id="Clip_26" data-name="Clip 26" d="M0,0H2087.945V504.6H0Z" transform="translate(0 0.066)" fill="none"/>
    </clipPath>
    <clipPath id="clip-path-3">
      <path id="Clip_39" data-name="Clip 39" d="M0,0H393.224V148.532H0Z" transform="translate(0 0.768)" fill="none"/>
    </clipPath>
    <clipPath id="clip-path-4">
      <path id="Clip_42" data-name="Clip 42" d="M0,0H747.4V178.4H0Z" transform="translate(0 0.134)" fill="none"/>
    </clipPath>
    <clipPath id="clip-path-5">
      <path id="Clip_53" data-name="Clip 53" d="M0,0H343.332V130.967H0Z" transform="translate(0.26 0.148)" fill="none"/>
    </clipPath>
    <clipPath id="clip-path-6">
      <path id="Clip_66" data-name="Clip 66" d="M0,0H2901.908V155.884H0Z" transform="translate(0 0.57)" fill="none"/>
    </clipPath>
    <linearGradient id="linear-gradient-2" x1="0.197" y1="0.819" x2="0.869" y2="0.174" gradientUnits="objectBoundingBox">
      <stop offset="0" stop-color="#ca2e2d"/>
      <stop offset="1" stop-color="#9b1919"/>
    </linearGradient>
    <linearGradient id="linear-gradient-3" y1="1.303" x2="1.219" y2="0.045" gradientUnits="objectBoundingBox">
      <stop offset="0" stop-color="#a20d0c"/>
      <stop offset="1" stop-color="#800808"/>
    </linearGradient>
    <linearGradient id="linear-gradient-4" x1="0.149" y1="-0.046" x2="0.822" y2="1" gradientUnits="objectBoundingBox">
      <stop offset="0" stop-color="#ff8180"/>
      <stop offset="1" stop-color="#fe4a49"/>
    </linearGradient>
  </defs>
  <g id="Video_Section" data-name="Video Section" transform="translate(0 0)" clip-path="url(#clip-path)">
    <g id="Animation" transform="translate(291 2732)">
      <path id="Fill_5" data-name="Fill 5" d="M2658.288,645.514H0L230.776,402.579,660.695,484.1l48.378,62.454,511.592-65.138,239.612-130.436,295.764,67.769,61.679-67.377,62.947-37.737,31.318-1.233,107.062-184.136,144.338,91.589,69.26-49.623L2328.336,0l141.75,227.326,1.565,260.494Z" transform="translate(115.332 480.673)" fill="#9ae0e2"/>
      <path id="Fill_7" data-name="Fill 7" d="M986.066,845.532H0L189.311,494.81l33.7,32.77,98.053-75.369,33.707,26.213L557.01,147.46l70.479-29.49L652,0l58.221,68.815-9.192,180.23,42.9,29.49Z" transform="translate(2032.934 276.109)" fill="#6c6a75"/>
      <path id="Fill_9" data-name="Fill 9" d="M310.058,180.329,319.255,0,277.128,50.815l-29.744,204.8-29.568-52.259L201.13,383.952,39.4,360.344,15.015,382.152l208.253,56.257-37.73,12.374L7.6,397.027,0,403.8,64.632,418.68l110.986,49.474-4.2,22.078,126.278-27.563L167.028,513.28l-5.543,29.1L85.9,512.244l74.485,39.6,22.838,26.007L164.791,777.344l430.484-.2L444.356,340.512,422.109,371.7,352.984,209.835Z" transform="translate(2423.725 348.843)" fill="#474553"/>
      <path id="Fill_11" data-name="Fill 11" d="M204.351,162.126,135.368,0,161.04,179.028l-49.358,31.145L100.973,400.646,0,568.234H377.159L246.548,188.96l-8.612,88.292Z" transform="translate(2641.841 557.953)" fill="#695f61"/>
      <path id="Fill_13" data-name="Fill 13" d="M45.441,0l-7.8,151.958L32.29,313.665,0,271.194,23.064,35.977Z" transform="translate(2696.37 376.118)" fill="#695f61"/>
      <path id="Fill_15" data-name="Fill 15" d="M53.485,30.445,66.475,0l35.883,131.975-60.1,60.544,63.576-47.775.616,2.26L61.073,184.278l47.835-28.217,63.767,234.491L0,395.491,3.9,205.557l72.929-68.265L4.15,193.537l.289-14.057,78.8-53.494L4.866,158.9l2.01-98.006Z" transform="translate(2778.164 730.696)" fill="#8b7970"/>
      <path id="Fill_17" data-name="Fill 17" d="M195.4,26.361,161.737,0,163.7,87.721l-4.907,8.271L86.765,69.813,83.06,72.681l62.931,44.872-6.507,10.966L85.894,79.359l-.962,5.357,42.2,64.613-58.285,98.2L0,395.491H136.162L149.93,193.158,183.586,77.833Z" transform="translate(2191.977 730.696)" fill="#474553"/>
      <path id="Fill_19" data-name="Fill 19" d="M36.234,32.727,3.988,0,30.782,121.483,0,240.931l45.441-112.9Z" transform="translate(2219.242 771.609)" fill="#695f61"/>
      <path id="Fill_21" data-name="Fill 21" d="M24.237,108.533,68.118,0,95.426,281.844H0Z" transform="translate(2296.491 844.343)" fill="#aa966e"/>
      <path id="Fill_23" data-name="Fill 23" d="M99.97,0,29,57.455,0,295.482,54.946,135.427l25.181,8.209Z" transform="translate(2573.68 403.393)" fill="#8b7970"/>
      <g id="Group_27" data-name="Group 27" transform="translate(115.332 619.444)">
        <path id="Clip_26-2" data-name="Clip 26" d="M0,0H2087.945V504.6H0Z" transform="translate(0 0.066)" fill="none"/>
        <g id="Group_27-2" data-name="Group 27" clip-path="url(#clip-path-2)">
          <path id="Fill_25" data-name="Fill 25" d="M2087.945,504.6H0L75.38,300.134l40.226,5.317,83.483,28.3,717.3,108.579,46.5-20.811,65.578,14.526,280.119-47.055,170.35,64.18,135.307-131.243,24.714-71.982,44.962-49.726,17.951-117.348,29.516,3.978L1737.67,0l34.282,15.913L1828.958,186.3l28.939-9.944,16.773,109.393,44.016,37.79,81.377,3.978Z" transform="translate(0 0.066)" fill="#cfac8c"/>
        </g>
      </g>
      <path id="Fill_28" data-name="Fill 28" d="M19.309,95.463H249.924V19.9L242.21,5.37l-2.221,3.379-3.275-5.3-2.4,3.684-1.782-2.657-5.849,11.514-5.325-9.98-3.2,5.158-4-6.769-5.221,9.694L204.78,6.979l-.351.49-2.676-4.181-3.278,5.3L196.351,5.37l-5.536,10.572-4.471-7.828-1,1.426-1.988-2.99-2.815,4.427L175.663,2.17l-3.639,6.013L170.146,5.37,166.362,12.6l-3.84-7.235L160.3,8.749l-3.273-5.3-2.4,3.684-1.785-2.657L147,15.992l-5.322-9.98-3.208,5.158-4-6.769-5.221,9.694-4.158-7.116-.351.49L120.053,0l-2.861,6.174-.53-.807-5.536,10.575-4.471-7.828-1,1.426-1.988-2.99-2.815,4.427L95.973,2.17,92.339,8.183,90.458,5.37l-2.77,3.824L82.744,4,77.8,9.194l-2.77-3.827L73.151,8.183,69.514,2.17l-4.881,8.807L61.821,6.55,59.833,9.54l-1-1.426-4.471,7.828L48.824,5.367l-.53.807L45.434,0,40.748,7.468l-.351-.49-4.158,7.116L31.019,4.4l-4,6.769-3.2-5.158L19.309,14.46v3.53L12.25,32.119l.476,4.271L0,74.766Z" transform="translate(1942.053 844.343)" fill="#80b2af"/>
      <path id="Fill_30" data-name="Fill 30" d="M2149.351,377.307H0L36.2,222.174,150.582,336.441l55.985-68.988,10.312-2.654L327.417,0l22.724,110.7,22.118,9.907L394.007,324.4l25.383,6.194,18.661,28.491L951.9,334.109l106.865-73.922,36.882,5.162,29.322-68.994,140.948,59.79,154.217,94.587,90.3-62.51,109.716-7.25,29.066-77.855,27.581,15.281,21.452-64.177,52.094-35.142,39.842,33.613,104.193,12.226Z" transform="translate(115.332 748.88)" fill="#6c6a75"/>
      <path id="Fill_32" data-name="Fill 32" d="M969.861,322.757l-7.486-62.6L904.716,153.147l133.646,57.483,147.643,107.456Zm-21.2,0H0L103.328,0l14.231,62.2,23.2,12,24.3,182.139,628.6,18.821,65.824-16.013-20.893-23.237,28.237-25.778,40.814,36.8Z" transform="translate(342.536 803.43)" fill="#474553"/>
      <path id="Fill_34" data-name="Fill 34" d="M499.851,259.116l0,0H444.867l-128.634-59.8-62.023-85.86L245.021,46,499.849,259.115Zm-149.664,0H85.244L39.755,135.563l-12.19,39.989L0,84.326,27.565,99.66l80.4,56.728L101.069,0l39.819,33.728,0,19.935,209.3,205.451h0Z" transform="translate(1764.833 867.072)" fill="#474553"/>
      <path id="Fill_36" data-name="Fill 36" d="M25.561,21.374,0,0,2.908,151.818l28.9,25.471L25.558,41.443Z" transform="translate(1878.436 876.164)" fill="#6c6a75"/>
      <g id="Group_40" data-name="Group 40" transform="translate(115.332 994.357)">
        <path id="Clip_39-2" data-name="Clip 39" d="M0,0H393.224V148.532H0Z" transform="translate(0 0.768)" fill="none"/>
        <g id="Group_40-2" data-name="Group 40" clip-path="url(#clip-path-3)">
          <path id="Fill_38" data-name="Fill 38" d="M348.579,29.984l9.98-15.411,34.667,107.608v26.352H0v-66.7L34.667,14.573,43.124,27.4,59.471,0,81.4,40.139,94.044,19.963l8.94,13.632,4.477-6.5,20.1,35.676,24.882-48.195,9.544,14.658L176.72,5.087l12.036,19.052,1.573-2.218,18.682,32.424,23.464-44.179L250.45,41.018l14.4-23.5L288.784,62.99l26.276-52.467,8.019,12.1L333.85,5.837Z" transform="translate(-0.001 0.768)" fill="#168491"/>
        </g>
      </g>
      <g id="Group_43" data-name="Group 43" transform="translate(115.332 945.549)">
        <path id="Clip_42-2" data-name="Clip 42" d="M0,0H747.4V178.4H0Z" transform="translate(0 0.134)" fill="none"/>
        <g id="Group_43-2" data-name="Group 43" clip-path="url(#clip-path-4)">
          <path id="Fill_41" data-name="Fill 41" d="M0,178.4H747.4a180.817,180.817,0,0,1-128.629-53.585L547.951,53.585A180.823,180.823,0,0,0,419.32,0H328.084A180.813,180.813,0,0,0,199.456,53.585l-70.827,71.234A180.813,180.813,0,0,1,0,178.4" transform="translate(-0.001 0.134)" fill="#019444"/>
        </g>
      </g>
      <path id="Fill_44" data-name="Fill 44" d="M346.2,19.449l4.888-7.517,16.981,32.318V77.28H0V8.9L10.885,20.441l6.1-8.51,4.143,6.258L29.13,4.824,39.872,24.4l6.2-9.846,4.378,6.654,2.194-3.174,9.846,17.405L74.677,11.932l1.169,1.788L82.146,0,92.462,16.6l.769-1.083,9.153,15.816,11.5-21.55,8.8,15.05,7.054-11.467,11.725,22.187,12.873-25.6,3.926,5.9,5.277-8.188,7.215,11.776,4.888-7.517L184.1,28.024l8.328-16.093,4.14,6.258,8.011-13.365L215.318,24.4l6.194-9.846,4.378,6.654,2.194-3.174,9.848,17.405,12.188-23.512,4.677,7.15L262.014,7.3l5.9,9.3.769-1.083,9.153,15.816,11.493-21.55,8.8,15.05,7.056-11.467L316.91,35.552l12.87-25.6,3.926,5.9,5.28-8.188Z" transform="translate(2223.786 880.71)" fill="#168491"/>
      <path id="Fill_46" data-name="Fill 46" d="M0,168.2l8.311-4.312L183.387,73H245.38V15.285l-8.089,15.561L227.34,13.311l-2.217,3.2-4.424-6.7-6.262,9.919L203.583,0l-8.089,13.465-4.186-6.3L179.322,30.255,168.43,14.928,164.241,23.4l-8.086-9.268L145.3,39.5l-6.262-6.666-4.424,9L132.4,39.784l-9.951,22.7L110.132,45.189l-4.723,9.659-7.29-8.081-5.96,12.454-.777-.686L82.133,79.269,70.52,63.586l-8.9,19.783-7.13-7.852-11.845,28.5-13-19.033-3.972,8.009L20.343,87.51l-7.29,15.652L8.11,98.153,0,117.749Z" transform="translate(1928.42 885.256)" fill="#168491"/>
      <path id="Fill_48" data-name="Fill 48" d="M186.307,154.56l-8.34-4.326L0,57.9V25.021L17.228.8l4.2,8.5L29.55,0l10.9,25.443,6.286-6.688,4.438,9.025,2.226-2.05L63.386,48.5,75.749,31.154l4.744,9.69,7.319-8.107,5.98,12.495.78-.689,9.287,20.8L115.517,49.61l8.93,19.847,7.158-7.878,11.888,28.592,13.057-19.094,3.988,8.035,5.35-5.5,7.316,15.7,4.961-5.025,8.142,19.66Z" transform="translate(2582.768 898.893)" fill="#168491"/>
      <path id="Fill_50" data-name="Fill 50" d="M0,177.289H745.229a180.6,180.6,0,0,1-128.254-53.25L546.357,53.25A180.6,180.6,0,0,0,418.1,0H327.13A180.593,180.593,0,0,0,198.878,53.25l-70.621,70.789A180.6,180.6,0,0,1,0,177.289" transform="translate(2173.801 948.898)" fill="#019444"/>
      <g id="Group_54" data-name="Group 54" transform="translate(2673.65 1012.54)">
        <path id="Clip_53-2" data-name="Clip 53" d="M0,0H343.332V130.967H0Z" transform="translate(0.26 0.148)" fill="none"/>
        <g id="Group_54-2" data-name="Group 54" clip-path="url(#clip-path-5)">
          <path id="Fill_52" data-name="Fill 52" d="M304.349,26.436l8.713-13.587,30.271,55.24v62.878H0V108.023L30.266,12.849l7.383,11.308L51.919,0,71.065,35.392,82.111,17.6l7.8,12.021,3.91-5.736,17.552,31.456,21.725-42.5,8.336,12.927L154.3,4.485l10.509,16.8,1.371-1.956,16.314,28.588L202.978,8.962,218.67,36.167,231.244,15.44l20.9,40.1L275.082,9.277l7,10.673,9.4-14.8Z" transform="translate(0.26 0.148)" fill="#168491"/>
        </g>
      </g>
      <path id="Fill_55" data-name="Fill 55" d="M0,204.564H1040.595A208.379,208.379,0,0,1,892.6,143.12L811.12,61.444A208.4,208.4,0,0,0,663.126,0H377.466A208.4,208.4,0,0,0,229.475,61.444L147.992,143.12A208.389,208.389,0,0,1,0,204.564" transform="translate(1778.466 921.623)" fill="#45bc54"/>
      <path id="Fill_57" data-name="Fill 57" d="M375.366,204.564H481.673a209.677,209.677,0,0,1-148.6-61.444L251.246,61.444A209.709,209.709,0,0,0,102.637,0H3.664C2.443,0,1.221.016,0,.037A209.65,209.65,0,0,1,144.939,61.444L226.76,143.12a209.692,209.692,0,0,0,148.606,61.444" transform="translate(2337.388 921.623)" fill="#3ca247"/>
      <path id="Fill_59" data-name="Fill 59" d="M619.857,29.055a23.315,23.315,0,0,1,6.489.92,13.032,13.032,0,0,1,19.531-1.753,10.311,10.311,0,0,1,4.2-.887,10.435,10.435,0,0,1,3.01.445,10.6,10.6,0,0,1,10.5-10.076,10.317,10.317,0,0,1,4.4.982V50H0a10.511,10.511,0,0,1,9.625-6.386,10.358,10.358,0,0,1,5.892,1.837c-.005-.119-.008-.241-.008-.364A10.613,10.613,0,0,1,26.026,34.381a10.305,10.305,0,0,1,3.99.8A13.251,13.251,0,0,1,42.9,24.617a13.025,13.025,0,0,1,8.993,3.605A10.382,10.382,0,0,1,59.1,27.78a10.5,10.5,0,0,1,20.8-1.552,12.353,12.353,0,0,1,4.342.969,13,13,0,0,1,13.431-2.355,15.544,15.544,0,0,1,29.164.239,15.577,15.577,0,0,1,13.517-7.914,15.364,15.364,0,0,1,8.839,2.786,11.1,11.1,0,1,1,22.206.133c0,.244-.008.491-.021.735a10.57,10.57,0,0,1,13.282-.621,8.049,8.049,0,0,1,7.869-6.658,7.949,7.949,0,0,1,6.313,3.136,10.956,10.956,0,0,1,13.548-1.94,16.153,16.153,0,0,1,28.874-4.061,18.443,18.443,0,0,1,5.184-1.88A20.28,20.28,0,0,1,273.1,11.782a14.086,14.086,0,0,1,18.506,1.793,18.682,18.682,0,0,1,13.54-7.393A20.31,20.31,0,0,1,319.734,0a20.718,20.718,0,0,1,20.525,19.84,16.469,16.469,0,0,1,29.324-2.77,11.274,11.274,0,0,1,21.33-1.413,18.613,18.613,0,0,1,5.975,5.456,8.047,8.047,0,0,1,7.92-7.032,7.9,7.9,0,0,1,5.674,2.4,17.314,17.314,0,0,1,32.457.222,18.1,18.1,0,0,1,22.084,3.977,15.432,15.432,0,0,1,28.056,1.663,13.661,13.661,0,0,1,26.039-1.286,15.393,15.393,0,0,1,11.865-5.608,15.691,15.691,0,0,1,15.546,15.83v.789a19.528,19.528,0,0,1,25.416,2.23,10.05,10.05,0,0,1,13.778-2.6,13.8,13.8,0,0,1,23.527-.087,23.162,23.162,0,0,1,10.608-2.561" transform="translate(1910.244 1076.182)" fill="#387c3f"/>
      <path id="Fill_61" data-name="Fill 61" d="M0,127.284H540.746a131.755,131.755,0,0,1-93.063-38.233L396.444,38.23A131.771,131.771,0,0,0,303.378,0H237.37a131.765,131.765,0,0,0-93.063,38.23L93.066,89.051A131.756,131.756,0,0,1,0,127.284" transform="translate(2473.71 998.902)" fill="#9cba39"/>
      <path id="Fill_63" data-name="Fill 63" d="M238.211,127.284h66.243A132.466,132.466,0,0,1,211.06,89.051L159.639,38.23A132.483,132.483,0,0,0,66.243,0H0A132.481,132.481,0,0,1,93.394,38.23l51.424,50.821a132.461,132.461,0,0,0,93.394,38.233" transform="translate(2714.547 998.902)" fill="#859f31"/>
      <g id="Group_67" data-name="Group 67" transform="translate(115.332 1126.187)">
        <path id="Clip_66-2" data-name="Clip 66" d="M0,0H2901.908V155.884H0Z" transform="translate(0 0.57)" fill="none"/>
        <g id="Group_67-2" data-name="Group 67" clip-path="url(#clip-path-6)">
          <path id="Fill_65" data-name="Fill 65" d="M0,0H2901.908c0,16.38,0,34.9,0,77.943a78.047,78.047,0,0,1-78.157,77.94H78.157A78.049,78.049,0,0,1,0,77.943Z" transform="translate(-0.001 0.57)" fill="#387c3f"/>
        </g>
      </g>
      <path id="Fill_68" data-name="Fill 68" d="M0,0H713.421a114.149,114.149,0,0,0-81.446,34.135L587.128,79.512a114.139,114.139,0,0,1-81.449,34.135H207.741a114.144,114.144,0,0,1-81.449-34.135L81.449,34.135A114.155,114.155,0,0,0,0,0" transform="translate(806.032 1135.279)" fill="#27aae2"/>
      <path id="Fill_70" data-name="Fill 70" d="M0,45.459H349.894a43.266,43.266,0,0,1-31.422-13.653l-17.3-18.153A43.256,43.256,0,0,0,269.747,0H80.15A43.271,43.271,0,0,0,48.725,13.653l-17.3,18.153A43.27,43.27,0,0,1,0,45.459" transform="translate(1778.466 1080.728)" fill="#9cba39"/>
      <path id="Fill_72" data-name="Fill 72" d="M80,45.459H195.4a43.17,43.17,0,0,1-31.367-13.653L146.76,13.653A43.159,43.159,0,0,0,115.393,0H0A43.15,43.15,0,0,1,31.367,13.653l17.27,18.153A43.164,43.164,0,0,0,80,45.459" transform="translate(1932.964 1080.728)" fill="#859f31"/>
      <path id="Fill_74" data-name="Fill 74" d="M20.448,22.729H0C0,10.175,9.155,0,20.448,0S40.9,10.175,40.9,22.729Z" transform="translate(1151.382 1103.457)" fill="#b3b3b3"/>
      <path id="Fill_76" data-name="Fill 76" d="M20.448,0H40.9c0,12.555-9.155,22.729-20.448,22.729S0,12.555,0,0Z" transform="translate(1128.662 1103.457)" fill="#b3b3b3"/>
      <path id="Fill_78" data-name="Fill 78" d="M0,59.1H6.295V10.516a3.89,3.89,0,0,1,3.812-3.964,3.72,3.72,0,0,1,2.7,1.16,3.062,3.062,0,0,0,4.45,0,3.37,3.37,0,0,0,0-4.631A9.886,9.886,0,0,0,10.107,0C4.886,0-.045,3.45,0,9.97Z" transform="translate(1192.279 1067.09)" fill="#b3b3b3"/>
      <path id="Fill_80" data-name="Fill 80" d="M3.482,0,0,4.546H9.088Z" transform="translate(1205.911 1071.636)" fill="#fd7311"/>
      <path id="Fill_82" data-name="Fill 82" d="M2.272,4.155A1.882,1.882,0,1,0,.391,2.273,1.885,1.885,0,0,0,2.272,4.155" transform="translate(1205.911 1067.09)" fill="#55576c"/>
      <path id="Fill_84" data-name="Fill 84" d="M20.448,22.729H40.9C40.9,10.175,31.742,0,20.448,0S0,10.175,0,22.729Z" transform="translate(1383.131 1103.457)" fill="#fff"/>
      <path id="Fill_86" data-name="Fill 86" d="M20.448,0H0C0,12.555,9.155,22.729,20.448,22.729S40.9,12.555,40.9,0Z" transform="translate(1405.851 1103.457)" fill="#fff"/>
      <path id="Fill_88" data-name="Fill 88" d="M18.176,59.1h-6.3V10.516A3.89,3.89,0,0,0,8.068,6.552a3.715,3.715,0,0,0-2.7,1.16,3.065,3.065,0,0,1-4.453,0,3.375,3.375,0,0,1,0-4.631A9.892,9.892,0,0,1,8.068,0c5.221,0,10.156,3.45,10.108,9.97Z" transform="translate(1364.954 1067.09)" fill="#fff"/>
      <path id="Fill_90" data-name="Fill 90" d="M5.607,0,9.088,4.546H0Z" transform="translate(1360.41 1071.636)" fill="#fd7311"/>
      <path id="Fill_92" data-name="Fill 92" d="M2.272,4.155A1.882,1.882,0,1,0,.391,2.273,1.882,1.882,0,0,0,2.272,4.155" transform="translate(1364.954 1067.09)" fill="#6c6a75"/>
      <path id="Fill_94" data-name="Fill 94" d="M20.448,22.729H40.9C40.9,10.175,31.742,0,20.448,0S0,10.175,0,22.729Z" transform="translate(1242.264 1103.457)" fill="#fff"/>
      <path id="Fill_96" data-name="Fill 96" d="M20.448,0H0C0,12.555,9.155,22.729,20.448,22.729S40.9,12.555,40.9,0Z" transform="translate(1264.984 1103.457)" fill="#fff"/>
      <path id="Fill_98" data-name="Fill 98" d="M18.176,59.1h-6.3V10.516A3.89,3.89,0,0,0,8.068,6.552a3.715,3.715,0,0,0-2.7,1.16,3.065,3.065,0,0,1-4.453,0,3.375,3.375,0,0,1,0-4.631A9.892,9.892,0,0,1,8.068,0c5.221,0,10.156,3.45,10.108,9.97Z" transform="translate(1224.088 1067.09)" fill="#fff"/>
      <path id="Fill_100" data-name="Fill 100" d="M5.607,0,9.088,4.546H0Z" transform="translate(1219.544 1071.636)" fill="#fd7311"/>
      <path id="Fill_102" data-name="Fill 102" d="M2.272,4.155A1.882,1.882,0,1,0,.391,2.273,1.885,1.885,0,0,0,2.272,4.155" transform="translate(1224.088 1067.09)" fill="#6c6a75"/>
      <g id="Group" transform="translate(1657 256)">
        <path id="Fill_1" data-name="Fill 1" d="M137,0H0A11.784,11.784,0,0,0,11,5.477c8.657,14.316,27.7,18.917,42.12,10.319,10.643,27.793,51.76,26.647,60.662-1.8A20.234,20.234,0,0,0,137,0" transform="translate(331 70)" fill="#addbbe"/>
        <path id="Fill_3" data-name="Fill 3" d="M47.548,28.565a17.6,17.6,0,0,0-15.532,3.784A19.092,19.092,0,0,0,0,40H137a11.348,11.348,0,0,0-20.667-4.291,17.815,17.815,0,0,0-12.967-13.658C95.879-11.165,47.185-5.121,47.548,28.565" transform="translate(331 27)" fill="#6cc9bf"/>
        <path id="Fill_122" data-name="Fill 122" d="M138.3,12.349a16.938,16.938,0,0,1-16.7,11.26c3.047,31.834-48.474,32.86-46.869,1-16.927,8.415-37.96-.3-43.052-18.295A23.319,23.319,0,0,1,0,.22c50.39-.163,101.709-.4,154,0a14.675,14.675,0,0,1-15.7,12.13" transform="translate(0 69)" fill="#27aae2"/>
        <path id="Fill_123" data-name="Fill 123" d="M188.585,51.482a23.161,23.161,0,0,0-22.777-16.26c4.16-45.971-66.1-47.452-63.912-1.441-23.083-12.152-51.76.434-58.707,26.42A30.689,30.689,0,0,0,0,69H210a20.269,20.269,0,0,0-21.415-17.518" transform="translate(69)" fill="#6cc9bf"/>
        <path id="Fill_124" data-name="Fill 124" d="M0,48H181a15.532,15.532,0,0,0-14.532-7.3A40.689,40.689,0,0,0,110.821,26.94c-14.06-37.058-68.38-35.531-80.143,2.4A26.709,26.709,0,0,0,0,48" transform="translate(4 21)" fill="#aaad77"/>
        <path id="Fill_125" data-name="Fill 125" d="M152.787,19.726A29.83,29.83,0,0,0,179.317,13.2C196.38,31.2,226.441,24.243,234,0H0C3.2,17.661,25.718,22.127,35.3,7.4A30.608,30.608,0,0,0,57.446,30.962c12.788,57.3,95.96,46.87,95.341-11.235" transform="translate(40 69)" fill="#9ae0e2"/>
        <path id="Fill_126" data-name="Fill 126" d="M68.5,0C30.67,0,0,31.57,0,70.513a71.342,71.342,0,0,0,20.063,49.86L48.847,150H88.156l28.781-29.627A71.342,71.342,0,0,0,137,70.513C137,31.57,106.332,0,68.5,0" transform="translate(234)" fill="#6cdaff"/>
        <path id="Fill_127" data-name="Fill 127" d="M69,0C30.894,0,0,31.57,0,70.513a71.073,71.073,0,0,0,20.21,49.86L49.2,150H69Z" transform="translate(233)" fill="#4dcfff"/>
        <path id="Fill_128" data-name="Fill 128" d="M40,0H37.276L35.613,9.946H21.362V0H18.638V9.946H4.387L2.722,0H0L6.7,40H33.3Z" transform="translate(283 146)" fill="#ff972a"/>
        <path id="Fill_129" data-name="Fill 129" d="M2.858,0H0L7.03,40H21V0H19.567V9.946H4.606Z" transform="translate(283 146)" fill="#ff8307"/>
        <path id="Fill_130" data-name="Fill 130" d="M21,0V113H7.325A168.957,168.957,0,0,1,0,64.245C0,38.142,9.4,14.277,21,0" transform="translate(283 4)" fill="#d9f1e7"/>
        <path id="Fill_131" data-name="Fill 131" d="M65,0C41.068,7.138,21.664,33.451,21.664,64.245A85.686,85.686,0,0,0,36.782,113H22.675A63.8,63.8,0,0,1,0,64.245C0,28.763,29.1,0,65,0" transform="translate(239 4)" fill="#d9f1e7"/>
        <path id="Fill_132" data-name="Fill 132" d="M0,0V113H13.675A169.036,169.036,0,0,0,21,64.245C21,38.142,11.6,14.277,0,0" transform="translate(303 4)" fill="#fff"/>
        <path id="Fill_133" data-name="Fill 133" d="M0,0C23.932,7.138,43.333,33.451,43.333,64.245A85.668,85.668,0,0,1,28.216,113H42.325A63.8,63.8,0,0,0,65,64.245C65,28.763,35.9,0,0,0" transform="translate(302 4)" fill="#fff"/>
        <path id="Fill_194" data-name="Fill 194" d="M0,36H133a11.341,11.341,0,0,0-10.677-5.476A29.555,29.555,0,0,0,81.432,20.205C71.1-7.588,31.186-6.443,22.544,22.006A19.6,19.6,0,0,0,0,36" transform="translate(546 33)" fill="#fff"/>
        <path id="Fill_195" data-name="Fill 195" d="M86.84,10.292a18.077,18.077,0,0,0,15.08-3.407C111.616,16.278,128.7,12.648,133,0H0C1.82,9.214,14.62,11.544,20.063,3.862a16.629,16.629,0,0,0,12.59,12.293C39.921,46.049,87.19,40.608,86.84,10.292" transform="translate(546 70)" fill="#addbbe"/>
        <path id="Fill_196" data-name="Fill 196" d="M103.727,29.245A13.35,13.35,0,0,1,93.439,33.5c2.228,22.96-33.485,24.785-35.923,4.121a55.6,55.6,0,0,1-12.871,1.5,55.292,55.292,0,0,1-16.836-2.6,20.623,20.623,0,0,1-3.659.33c-9.253,0-16.984-6.189-18.887-14.463A50.686,50.686,0,0,1,0,15.8c-.029-.039,1.806-.07,5.019-.1C6.4,6.821,14.436,0,24.15,0c9.682,0,17.7,6.78,19.114,15.632,29.912,0,59.824.1,89.737.1a22.815,22.815,0,0,1-21.649,14.757,23.81,23.81,0,0,1-7.624-1.241" transform="translate(546 52)" fill="#6cdaff"/>
      </g>
      <path id="Fill_104" data-name="Fill 104" d="M0,9.092H13.632V0H0Z" transform="translate(1928.42 1071.636)" fill="#8e6340"/>
      <path id="Fill_106" data-name="Fill 106" d="M81.793,127.646A218.314,218.314,0,0,0,40.9,0,218.316,218.316,0,0,0,0,127.646q0,8.788.676,17.4A164.478,164.478,0,0,0,40.9,150.014a164.457,164.457,0,0,0,40.219-4.967q.671-8.606.676-17.4" transform="translate(1896.612 926.168)" fill="#387c3f"/>
      <path id="Fill_107" data-name="Fill 107" d="M40.9,127.646A218.309,218.309,0,0,0,0,0V150.014a164.467,164.467,0,0,0,40.22-4.967q.671-8.606.676-17.4" transform="translate(1937.509 926.168)" fill="#006738"/>
      <path id="Fill_108" data-name="Fill 108" d="M0,36.367H9.088V0H0Z" transform="translate(2428.269 1089.82)" fill="#8e6340"/>
      <path id="Fill_109" data-name="Fill 109" d="M40.9,81.826A40.913,40.913,0,1,0,0,40.914,40.984,40.984,0,0,0,40.9,81.826" transform="translate(2391.917 1007.994)" fill="#b5d153"/>
      <path id="Fill_110" data-name="Fill 110" d="M0,0A40.9,40.9,0,0,1,40.9,40.913,40.906,40.906,0,0,1,0,81.826Z" transform="translate(2432.813 1007.994)" fill="#9cba39"/>
      <path id="Fill_111" data-name="Fill 111" d="M0,36.367H9.088V0H0Z" transform="translate(1832.995 1089.82)" fill="#8e6340"/>
      <path id="Fill_112" data-name="Fill 112" d="M40.9,81.826A40.913,40.913,0,1,0,0,40.914,40.982,40.982,0,0,0,40.9,81.826" transform="translate(1796.642 1007.994)" fill="#b5d153"/>
      <path id="Fill_113" data-name="Fill 113" d="M0,0A40.9,40.9,0,0,1,40.9,40.913,40.906,40.906,0,0,1,0,81.826Z" transform="translate(1837.539 1007.994)" fill="#9cba39"/>
      <path id="Fill_114" data-name="Fill 114" d="M0,22.729H4.544V0H0Z" transform="translate(1964.773 1057.999)" fill="#8e6340"/>
      <path id="Fill_115" data-name="Fill 115" d="M27.264,54.55A27.275,27.275,0,1,0,0,27.275,27.32,27.32,0,0,0,27.264,54.55" transform="translate(1942.053 1003.448)" fill="#b5d153"/>
      <path id="Fill_116" data-name="Fill 116" d="M0,0A27.271,27.271,0,0,1,27.264,27.275,27.271,27.271,0,0,1,0,54.55Z" transform="translate(1964.773 1003.448)" fill="#9cba39"/>
      <g id="Group_2" data-name="Group 2" transform="translate(0 274.68)">
        <path id="Fill_117" data-name="Fill 117" d="M98.176,27.708a12.629,12.629,0,0,1-9.737,4.036c2.109,21.753-31.694,23.482-34,3.9a52.571,52.571,0,0,1-12.183,1.423A52.274,52.274,0,0,1,26.321,34.6a19.507,19.507,0,0,1-3.466.312,18.132,18.132,0,0,1-17.876-13.7A48.188,48.188,0,0,1,0,14.974c-.027-.037,1.709-.067,4.752-.09C6.055,6.463,13.664,0,22.855,0c9.166,0,16.757,6.424,18.093,14.81,28.314,0,56.623.093,84.935.093a21.6,21.6,0,0,1-20.491,13.981,22.526,22.526,0,0,1-7.216-1.176" transform="translate(7.662 61.309)" fill="#27aae2"/>
        <path id="Fill_118" data-name="Fill 118" d="M0,33.939H133.545a11.618,11.618,0,0,0-10.719-5.163c-8.442-13.5-27-17.835-41.061-9.727-10.372-26.2-50.452-25.122-59.13,1.7C12.652,18.949,2.787,24.629,0,33.939" transform="translate(0 42.698)" fill="#9ae0e2"/>
        <path id="Fill_119" data-name="Fill 119" d="M87.2,10.955a17.373,17.373,0,0,0,15.139-3.628A18.742,18.742,0,0,0,133.545,0H0C1.829,9.807,14.68,12.286,20.145,4.11A17.2,17.2,0,0,0,32.786,17.195c7.3,31.82,54.765,26.028,54.411-6.24" transform="translate(0 76.637)" fill="#6cc9bf"/>
        <path id="Fill_197" data-name="Fill 197" d="M267.091,0H0A22.781,22.781,0,0,0,21.442,10.992,59.37,59.37,0,0,0,103.559,31.7C124.3,87.489,204.465,85.19,221.821,28.088A39.371,39.371,0,0,0,267.091,0" transform="translate(102.896 76.637)" fill="#9ae0e2"/>
        <path id="Fill_198" data-name="Fill 198" d="M92.7,54.727A34.749,34.749,0,0,0,62.415,61.98C42.942,41.985,8.629,49.71,0,76.637H267.091c-3.659-19.617-29.359-24.576-40.291-8.222a34.406,34.406,0,0,0-25.282-26.168C186.923-21.391,91.992-9.81,92.7,54.727" transform="translate(102.896)" fill="#fff"/>
        <path id="Fill_199" data-name="Fill 199" d="M0,15.327H56.921A4.86,4.86,0,0,0,52.352,13,12.686,12.686,0,0,0,34.851,8.6c-4.421-11.835-21.5-11.346-25.2.767A8.39,8.39,0,0,0,0,15.327" transform="translate(440.043 61.309)" fill="#fff"/>
        <path id="Fill_200" data-name="Fill 200" d="M37.167,4.383a7.768,7.768,0,0,0,6.452-1.451c4.152,4,11.463,2.453,13.3-2.932H0C.781,3.923,6.258,4.915,8.587,1.644A7.1,7.1,0,0,0,13.975,6.88c3.11,12.726,23.341,10.408,23.191-2.5" transform="translate(440.043 76.637)" fill="#afdefa"/>
      </g>
      <path id="Fill_120" data-name="Fill 120" d="M65.889,131.83A65.915,65.915,0,1,0,0,65.915,66.03,66.03,0,0,0,65.889,131.83" transform="translate(1958 0)" fill="#fff"/>
      <path id="Fill_121" data-name="Fill 121" d="M52.258,104.555A52.278,52.278,0,1,0,0,52.276a52.368,52.368,0,0,0,52.258,52.279" transform="translate(1971.632 13.638)" fill="#ffc442"/>
      <path id="Fill_134" data-name="Fill 134" d="M0,18.183H18.176V0H0Z" transform="translate(2042.022 1108.003)" fill="#8e6340"/>
      <path id="Fill_135" data-name="Fill 135" d="M127.234,193.407A325.025,325.025,0,0,0,63.616,0,325.023,325.023,0,0,0,0,193.407q0,13.307,1.057,26.366a262.184,262.184,0,0,0,62.558,7.521,262.19,262.19,0,0,0,62.561-7.521q1.049-13.046,1.057-26.366" transform="translate(1987.493 885.256)" fill="#387c3f"/>
      <path id="Fill_136" data-name="Fill 136" d="M63.617,193.407A325.012,325.012,0,0,0,0,0V227.294a262.314,262.314,0,0,0,62.56-7.521q1.049-13.046,1.057-26.366" transform="translate(2051.111 885.256)" fill="#006738"/>
      <path id="Fill_137" data-name="Fill 137" d="M0,4.546H9.088V0H0Z" transform="translate(2173.801 1117.095)" fill="#8e6340"/>
      <path id="Fill_138" data-name="Fill 138" d="M72.705,112.173A190.375,190.375,0,0,0,36.354,0,190.4,190.4,0,0,0,0,112.173q0,7.722.6,15.293a147.837,147.837,0,0,0,35.75,4.364A147.8,147.8,0,0,0,72.1,127.466q.6-7.568.6-15.293" transform="translate(2141.992 989.811)" fill="#067265"/>
      <path id="Fill_139" data-name="Fill 139" d="M36.353,112.173A190.37,190.37,0,0,0,0,0V131.83a147.68,147.68,0,0,0,35.748-4.366q.6-7.564.6-15.291" transform="translate(2178.345 989.811)" fill="#05594f"/>
      <path id="Fill_140" data-name="Fill 140" d="M0,31.821H9.088V0H0Z" transform="translate(2173.801 803.43)" fill="#603223"/>
      <path id="Fill_141" data-name="Fill 141" d="M0,104.555H72.705V48.666L36.353,0,0,48.666Z" transform="translate(2155.625 817.068)" fill="#e95a3b"/>
      <path id="Fill_142" data-name="Fill 142" d="M72.705,54.548V49.4L36.353,0,0,49.4V54.55l36.353-49.4Z" transform="translate(2155.625 817.068)" fill="#db5537"/>
      <path id="Fill_143" data-name="Fill 143" d="M0,22.729H18.176V0H0Z" transform="translate(2169.257 871.618)" fill="#fff0dc"/>
      <path id="Fill_144" data-name="Fill 144" d="M0,18.183H13.632V0H0Z" transform="translate(2169.257 871.618)" fill="#ffc442"/>
      <path id="Fill_145" data-name="Fill 145" d="M0,22.729H18.176V0H0Z" transform="translate(2196.521 871.618)" fill="#fff0dc"/>
      <path id="Fill_146" data-name="Fill 146" d="M0,18.183H13.632V0H0Z" transform="translate(2201.065 871.618)" fill="#ffc442"/>
      <path id="Fill_147" data-name="Fill 147" d="M43.169,6.272,2.975,59.1,0,56.735,43.169,0,86.338,56.735,83.363,59.1Z" transform="translate(2146.536 812.522)" fill="#603223"/>
      <path id="Fill_148" data-name="Fill 148" d="M0,86.372H708.877a88.733,88.733,0,0,1-62.831-25.944L611.451,25.944A88.721,88.721,0,0,0,548.62,0H160.254A88.715,88.715,0,0,0,97.425,25.944L62.832,60.428A88.733,88.733,0,0,1,0,86.372" transform="translate(219.846 1039.815)" fill="#45bc54"/>
      <path id="Fill_149" data-name="Fill 149" d="M159.355,86.372h45.128A89.261,89.261,0,0,1,141.4,60.428L106.66,25.944A89.263,89.263,0,0,0,43.571,0H1.555C1.036,0,.519.005,0,.016A89.247,89.247,0,0,1,61.529,25.944L96.267,60.428a89.272,89.272,0,0,0,63.089,25.944" transform="translate(724.239 1039.815)" fill="#3ca247"/>
      <path id="Fill_150" data-name="Fill 150" d="M0,4.546H4.544V0H0Z" transform="translate(2187.433 839.797)" fill="#474553"/>
      <path id="Fill_151" data-name="Fill 151" d="M0,100.009H0V86.217a7.4,7.4,0,0,1,4.658,6.9,7.385,7.385,0,0,1-1.306,4.207A7.414,7.414,0,0,1,0,100.008ZM8.545,77.652a2.372,2.372,0,1,1,2.369-2.374A2.376,2.376,0,0,1,8.545,77.652ZM0,74.575H0V51.546a12.053,12.053,0,0,1,3.354,1.7,5.354,5.354,0,1,1,4.83,7.661,12.167,12.167,0,0,1,.193,2.154,12,12,0,0,1-2.367,7.189A12.03,12.03,0,0,1,0,74.574Zm8.582-26a5.7,5.7,0,1,1,5.7-5.7A5.705,5.705,0,0,1,8.582,48.578Zm24.482-.55a8.292,8.292,0,1,1,8.286-8.293A8.3,8.3,0,0,1,33.063,48.028ZM0,40.773V0H48.291A18.964,18.964,0,0,1,34.737,8.491c.037.53.054,1.03.054,1.528a23.349,23.349,0,0,1-6.878,16.614,23.319,23.319,0,0,1-16.6,6.881,23.479,23.479,0,0,1-7.927-1.369A15.629,15.629,0,0,1,0,40.77ZM46.357,14.081a3.629,3.629,0,1,1,3.628-3.628A3.63,3.63,0,0,1,46.357,14.081Z" transform="translate(2178.345 703.421)" fill="#fff"/>
      <path id="Fill_152" data-name="Fill 152" d="M0,3.894H18.176V.652H0Z" transform="translate(2169.257 894.347)" fill="#db5537"/>
      <path id="Fill_153" data-name="Fill 153" d="M0,3.894H18.176V.652H0Z" transform="translate(2196.521 894.347)" fill="#db5537"/>
      <path id="Fill_154" data-name="Fill 154" d="M0,4.546H4.544V0H0Z" transform="translate(2255.594 917.077)" fill="#8e6340"/>
      <path id="Fill_155" data-name="Fill 155" d="M36.353,58.02A100.769,100.769,0,0,0,18.175,0,100.786,100.786,0,0,0,0,58.02q0,3.989.3,7.91a71.6,71.6,0,0,0,17.874,2.257,71.65,71.65,0,0,0,17.877-2.257q.3-3.916.3-7.91" transform="translate(2241.962 848.889)" fill="#387c3f"/>
      <path id="Fill_156" data-name="Fill 156" d="M18.176,58.02A100.774,100.774,0,0,0,0,0V68.188a71.64,71.64,0,0,0,17.876-2.257q.3-3.916.3-7.91" transform="translate(2260.138 848.889)" fill="#006738"/>
      <path id="Fill_157" data-name="Fill 157" d="M0,4.546H4.544V0H0Z" transform="translate(2346.476 917.077)" fill="#8e6340"/>
      <path id="Fill_158" data-name="Fill 158" d="M27.264,42.548A72.766,72.766,0,0,0,13.632,0,72.766,72.766,0,0,0,0,42.548q0,2.931.226,5.8A54.784,54.784,0,0,0,13.632,50a54.784,54.784,0,0,0,13.406-1.655q.226-2.872.226-5.8" transform="translate(2332.844 867.072)" fill="#067265"/>
      <path id="Fill_159" data-name="Fill 159" d="M13.632,42.548A72.766,72.766,0,0,0,0,0V50a54.911,54.911,0,0,0,13.406-1.655q.226-2.872.226-5.8" transform="translate(2346.476 867.072)" fill="#05594f"/>
      <path id="Fill_160" data-name="Fill 160" d="M0,31.821H9.088V0H0Z" transform="translate(2291.947 889.802)" fill="#8e6340"/>
      <path id="Fill_161" data-name="Fill 161" d="M31.809,63.642A31.821,31.821,0,1,0,0,31.821,31.876,31.876,0,0,0,31.809,63.642" transform="translate(2264.682 826.159)" fill="#b5d153"/>
      <path id="Fill_162" data-name="Fill 162" d="M0,0A31.813,31.813,0,0,1,31.809,31.82,31.816,31.816,0,0,1,0,63.642Z" transform="translate(2296.491 826.159)" fill="#9cba39"/>
      <path id="Fill_163" data-name="Fill 163" d="M0,13.638H13.632V0H0Z" transform="translate(356.168 1112.549)" fill="#8e6340"/>
      <path id="Fill_164" data-name="Fill 164" d="M99.97,154.721A263.146,263.146,0,0,0,49.984,0,263.144,263.144,0,0,0,0,154.721q0,10.65.829,21.1a202.563,202.563,0,0,0,49.155,6.019,202.569,202.569,0,0,0,49.157-6.019q.825-10.441.829-21.1" transform="translate(315.271 935.26)" fill="#067265"/>
      <path id="Fill_165" data-name="Fill 165" d="M49.985,154.721A263.145,263.145,0,0,0,0,0V181.835a202.558,202.558,0,0,0,49.156-6.019q.825-10.441.829-21.1" transform="translate(365.256 935.26)" fill="#05594f"/>
      <path id="Fill_166" data-name="Fill 166" d="M0,0H713.421c-29.478,0-58.955,5.461-81.446,16.383L587.128,38.165C564.637,49.089,535.16,54.55,505.679,54.55H207.741c-29.478,0-58.958-5.461-81.449-16.386L81.449,16.383C58.958,5.461,29.478,0,0,0" transform="translate(806.032 1135.279)" fill="#6cdaff"/>
      <path id="Fill_167" data-name="Fill 167" d="M0,63.642H272.645a66.721,66.721,0,0,1-46.924-19.118L199.885,19.116A66.718,66.718,0,0,0,152.964,0H119.681A66.718,66.718,0,0,0,72.76,19.116L46.924,44.524A66.716,66.716,0,0,1,0,63.642" transform="translate(360.712 1062.545)" fill="#9cba39"/>
      <path id="Fill_168" data-name="Fill 168" d="M117.328,63.642h32.627a64.744,64.744,0,0,1-46-19.117L78.625,19.117A64.744,64.744,0,0,0,32.627,0H0A64.755,64.755,0,0,1,46,19.117L71.327,44.525a64.739,64.739,0,0,0,46,19.117" transform="translate(483.402 1062.545)" fill="#859f31"/>
      <path id="Fill_169" data-name="Fill 169" d="M0,9.092H2903.668V0H0Z" transform="translate(115.332 1126.187)" fill="#6cdaff"/>
      <path id="Fill_170" data-name="Fill 170" d="M0,13.638H18.176V0H0Z" transform="translate(278.919 1112.549)" fill="#8e6340"/>
      <path id="Fill_171" data-name="Fill 171" d="M127.234,193.407A325.023,325.023,0,0,0,63.618,0,325.007,325.007,0,0,0,0,193.407q0,13.307,1.057,26.366a262.19,262.19,0,0,0,62.561,7.521,262.206,262.206,0,0,0,62.561-7.521q1.049-13.046,1.055-26.366" transform="translate(224.39 889.802)" fill="#387c3f"/>
      <path id="Fill_172" data-name="Fill 172" d="M63.617,193.4A325.012,325.012,0,0,0,0,0V227.294a262.316,262.316,0,0,0,62.56-7.524q1.053-13.045,1.057-26.366" transform="translate(288.007 889.802)" fill="#006738"/>
      <path id="Fill_173" data-name="Fill 173" d="M0,36.367H9.088V0H0Z" transform="translate(197.125 1089.82)" fill="#8e6340"/>
      <path id="Fill_174" data-name="Fill 174" d="M40.9,81.826A40.913,40.913,0,1,0,0,40.914,40.982,40.982,0,0,0,40.9,81.826" transform="translate(160.773 1007.994)" fill="#b5d153"/>
      <path id="Fill_175" data-name="Fill 175" d="M0,0A40.9,40.9,0,0,1,40.9,40.913,40.9,40.9,0,0,1,0,81.826Z" transform="translate(201.669 1007.994)" fill="#9cba39"/>
      <path id="Fill_176" data-name="Fill 176" d="M0,9.092H9.088V0H0Z" transform="translate(683.342 1117.095)" fill="#8e6340"/>
      <path id="Fill_177" data-name="Fill 177" d="M72.705,112.173A190.382,190.382,0,0,0,36.353,0,190.4,190.4,0,0,0,0,112.173q0,7.722.6,15.291a147.713,147.713,0,0,0,35.748,4.366A147.7,147.7,0,0,0,72.1,127.464q.6-7.564.6-15.291" transform="translate(651.533 985.265)" fill="#067265"/>
      <path id="Fill_178" data-name="Fill 178" d="M36.353,112.173A190.382,190.382,0,0,0,0,0V131.83a147.7,147.7,0,0,0,35.748-4.366q.6-7.564.6-15.291" transform="translate(687.886 985.265)" fill="#05594f"/>
      <path id="Fill_179" data-name="Fill 179" d="M0,9.092H9.088V0H0Z" transform="translate(1533.085 1117.095)" fill="#8e6340"/>
      <path id="Fill_180" data-name="Fill 180" d="M63.617,96.7A162.509,162.509,0,0,0,31.81,0,162.493,162.493,0,0,0,0,96.7q0,6.659.527,13.184a131.137,131.137,0,0,0,31.283,3.76,131.148,131.148,0,0,0,31.28-3.76q.527-6.526.527-13.184" transform="translate(1505.821 1007.994)" fill="#067265"/>
      <path id="Fill_181" data-name="Fill 181" d="M31.809,96.7A162.5,162.5,0,0,0,0,0V113.647a131.163,131.163,0,0,0,31.281-3.762q.527-6.526.527-13.183" transform="translate(1537.629 1007.994)" fill="#05594f"/>
      <path id="Fill_182" data-name="Fill 182" d="M0,13.638H13.632V0H0Z" transform="translate(1015.06 1112.549)" fill="#8e6340"/>
      <path id="Fill_183" data-name="Fill 183" d="M109.058,166.326A280.123,280.123,0,0,0,54.528,0,280.121,280.121,0,0,0,0,166.326Q0,177.775.9,189a224.146,224.146,0,0,0,53.625,6.47A224.186,224.186,0,0,0,108.155,189q.9-11.216.9-22.676" transform="translate(965.075 921.623)" fill="#387c3f"/>
      <path id="Fill_184" data-name="Fill 184" d="M54.529,166.327A280.135,280.135,0,0,0,0,0V195.472A224.138,224.138,0,0,0,53.623,189q.9-11.216.906-22.676" transform="translate(1019.604 921.623)" fill="#006738"/>
      <path id="Fill_185" data-name="Fill 185" d="M0,31.821H9.088V0H0Z" transform="translate(1673.952 1094.366)" fill="#8e6340"/>
      <path id="Fill_186" data-name="Fill 186" d="M34.079,68.188A34.094,34.094,0,1,0,0,34.091a34.154,34.154,0,0,0,34.079,34.1" transform="translate(1642.143 1026.178)" fill="#b5d153"/>
      <path id="Fill_187" data-name="Fill 187" d="M0,0C17.567,0,31.809,15.266,31.809,34.094S17.567,68.188,0,68.188Z" transform="translate(1678.496 1026.178)" fill="#9cba39"/>
      <path id="Fill_188" data-name="Fill 188" d="M0,22.729H4.544V0H0Z" transform="translate(828.753 1098.912)" fill="#8e6340"/>
      <path id="Fill_189" data-name="Fill 189" d="M27.264,54.55A27.275,27.275,0,1,0,0,27.275,27.322,27.322,0,0,0,27.264,54.55" transform="translate(801.488 1048.907)" fill="#b5d153"/>
      <path id="Fill_190" data-name="Fill 190" d="M0,0A27.27,27.27,0,0,1,27.264,27.274,27.272,27.272,0,0,1,0,54.55Z" transform="translate(828.753 1048.907)" fill="#9cba39"/>
      <path id="Fill_191" data-name="Fill 191" d="M0,22.729H4.544V0H0Z" transform="translate(451.594 1012.54)" fill="#8e6340"/>
      <path id="Fill_192" data-name="Fill 192" d="M27.264,54.55A27.275,27.275,0,1,0,0,27.275,27.322,27.322,0,0,0,27.264,54.55" transform="translate(428.873 962.535)" fill="#b5d153"/>
      <path id="Fill_193" data-name="Fill 193" d="M0,0A27.27,27.27,0,0,1,27.264,27.275,27.27,27.27,0,0,1,0,54.55Z" transform="translate(456.138 962.535)" fill="#9cba39"/>
    </g>
    <g id="Icon" transform="translate(509 3284)">
      <path id="Path" d="M173,0s-11.52,1.578-34.444,7.156c-.069.015-.113.03-.181.045a.15.15,0,0,1-.039.01c-2.8.645-5.743,1.345-8.781,2.074-.426.1-.843.2-1.274.3-6.262,1.519-12.937,3.2-19.91,5.047-.681.179-1.367.367-2.058.551-2.725.73-5.474,1.484-8.272,2.263-.936.263-1.867.526-2.813.789-3.288.933-6.591,1.886-9.933,2.878-.225.069-.446.129-.666.194q-5.27,1.578-10.575,3.265c-.985.308-1.96.63-2.945.948q-3.991,1.28-7.953,2.62c-1.054.357-2.092.7-3.136,1.067-3.528,1.216-7.042,2.452-10.506,3.732-56.054,20.794-59,48.188-36.061,55.136,22.884,6.9,36.061,1.042,36.061,1.042L48.092,132.4v.1c0,.174.113.288.137.447.02.05.029.094.049.149a2.529,2.529,0,0,0,.99,1.375,2.34,2.34,0,0,0,.662.407,2.365,2.365,0,0,0,.255.06,2.143,2.143,0,0,0,.907.035,2.214,2.214,0,0,0,1.367-.685l21.948-22.729c.441.744.882,1.489,1.377,2.283,4.356,6.749,12.883,13.8,29.156,17.171,35.527,7.3,50.761-14.888,58.945-57.27.632-3.27,1.205-6.462,1.744-9.6.049-.3.108-.615.162-.918.5-3,.97-5.921,1.4-8.774.054-.362.108-.72.162-1.077q.632-4.273,1.156-8.3c.029-.238.064-.476.093-.715q.537-4.184.97-8.06s0,0,0-.01v0C173.194,4.055,173,0,173,0" fill="url(#linear-gradient-2)"/>
      <path id="Fill_4" data-name="Fill 4" d="M24,20.138,3.248,42.257a2.145,2.145,0,0,1-3.248,0c.51.386,1.2.145,2.224-1.835C4.355,36.22,20.71,3.96,22.749,0A25.558,25.558,0,0,0,20.9,6.085s-.046.483-.046,1.352a.468.468,0,0,0,0,.338A28.829,28.829,0,0,0,24,20.138" transform="translate(51 92)" fill="url(#linear-gradient-3)"/>
      <path id="Fill_8" data-name="Fill 8" d="M173,0s-11.525,1.574-34.443,7.136c-.069.015-.118.03-.181.045-24.315,5.6-58.126,14.336-88.859,25.668-56.058,20.734-59,48.05-36.065,54.978,22.884,6.878,36.065,1.039,36.065,1.039l79.725-54.83,30.675-23.258L147.86,22.506c-.294.3-.588.544-.882.792C107.924,59.175,82.541,73.674,74.064,88.817a.048.048,0,0,0-.049.049c-.294.445-.49.891-.735,1.336-.049.148-.147.247-.2.4a25.591,25.591,0,0,0-1.96,6.235s-.049.495-.049,1.386a.422.422,0,0,0,0,.346,28.794,28.794,0,0,0,3.332,12.668c.441.742.882,1.485,1.372,2.276,4.361,6.73,12.887,13.757,29.156,17.122,35.526,7.274,50.766-14.846,58.949-57.106,2.685-13.886,4.484-26.559,5.694-37.347v0C173.194,4.043,173,0,173,0" fill="url(#linear-gradient-4)"/>
    </g>
  </g>
</svg>
